# This file uses centimeters as units for non-parametric coordinates.

mtllib cell.mtl
g default
v -1.000000 -1.000000 1.000000
v 1.000000 -1.000000 1.000000
v -1.000000 1.000000 1.000000
v 1.000000 1.000000 1.000000
v -1.000000 1.000000 -1.000000
v 1.000000 1.000000 -1.000000
v -1.000000 -1.000000 -1.000000
v 1.000000 -1.000000 -1.000000
vt 0.250498 0.250996
vt 0.499502 0.250996
vt 0.250498 0.500000
vt 0.499502 0.500000
vt 0.250498 0.749004
vt 0.499502 0.749004
vt 0.250498 0.001992
vt 0.499502 0.998008
vt 0.499502 0.001992
vt 0.250498 0.998008
vt 0.748506 0.250996
vt 0.748506 0.500000
vt 0.001494 0.250996
vt 0.001494 0.500000
vn 0.000000 0.000000 -1.000000
vn 0.000000 0.000000 -1.000000
vn 0.000000 0.000000 -1.000000
vn 0.000000 0.000000 -1.000000
vn 0.000000 -1.000000 0.000000
vn 0.000000 -1.000000 0.000000
vn 0.000000 -1.000000 0.000000
vn 0.000000 -1.000000 0.000000
vn 0.000000 0.000000 1.000000
vn 0.000000 0.000000 1.000000
vn 0.000000 0.000000 1.000000
vn 0.000000 0.000000 1.000000
vn 0.000000 1.000000 0.000000
vn 0.000000 1.000000 0.000000
vn 0.000000 1.000000 0.000000
vn 0.000000 1.000000 0.000000
vn -1.000000 0.000000 0.000000
vn -1.000000 0.000000 0.000000
vn -1.000000 0.000000 0.000000
vn -1.000000 0.000000 0.000000
vn 1.000000 0.000000 0.000000
vn 1.000000 0.000000 0.000000
vn 1.000000 0.000000 0.000000
vn 1.000000 0.000000 0.000000
s off
g cell_geo
usemtl initialShadingGroup
f 1/1/1 3/3/2 4/4/3 2/2/4
f 3/3/5 5/5/6 6/6/7 4/4/8
f 5/5/9 7/10/10 8/8/11 6/6/12
f 7/7/13 1/1/14 2/2/15 8/9/16
f 2/2/17 4/4/18 6/12/19 8/11/20
f 7/13/21 5/14/22 3/3/23 1/1/24
