# This file uses centimeters as units for non-parametric coordinates.

mtllib cellEdge.mtl
g default
v -1.000000 -1.000000 1.000000
v -1.000000 1.000000 1.000000
v 1.000000 1.000000 1.000000
v 1.000000 -1.000000 1.000000
v -1.000000 1.000000 -1.000000
v 1.000000 1.000000 -1.000000
vt 0.250498 0.250996
vt 0.250498 0.500000
vt 0.499502 0.500000
vt 0.499502 0.250996
vt 0.250498 0.749004
vt 0.499502 0.749004
vn 0.000000 0.000000 -1.000000
vn 0.000000 0.000000 -1.000000
vn 0.000000 0.000000 -1.000000
vn 0.000000 0.000000 -1.000000
vn 0.000000 -1.000000 0.000000
vn 0.000000 -1.000000 0.000000
vn 0.000000 -1.000000 0.000000
vn 0.000000 -1.000000 0.000000
s off
g cellEdge_geo
usemtl cell_initialShadingGroup
f 1/1/1 2/2/2 3/3/3 4/4/4
f 2/2/5 5/5/6 6/6/7 3/3/8
